<?xml version="1.0" encoding="UTF-8"?>
<svg version="1.1" xmlns="http://www.w3.org/2000/svg" width="24" height="24">
<path d="M0 0 C2.64581609 -0.22296203 4.99279502 -0.28148752 7.625 -0.1875 C10.05875 -0.125625 12.4925 -0.06375 15 0 C15 6.27 15 12.54 15 19 C12.69 19.66 10.38 20.32 8 21 C7.34 21.66 6.68 22.32 6 23 C2.4080695 24.33034463 -1.21470013 24.07279423 -5 24 C-9.59225513 10.3667426 -9.59225513 10.3667426 -9 4 C-7.88625 3.896875 -6.7725 3.79375 -5.625 3.6875 C-4.42875 3.460625 -3.2325 3.23375 -2 3 C-1.34 2.01 -0.68 1.02 0 0 Z " fill="#3C9040" transform="translate(9,0)"/>
<path d="M0 0 C1.39456452 0.00667256 2.78911118 0.01863093 4.18359375 0.03515625 C4.89451172 0.03966797 5.60542969 0.04417969 6.33789062 0.04882812 C8.09899388 0.06064761 9.86005411 0.07858362 11.62109375 0.09765625 C11.62109375 4.05765625 11.62109375 8.01765625 11.62109375 12.09765625 C10.30109375 11.10765625 8.98109375 10.11765625 7.62109375 9.09765625 C5.12747804 10.30147073 2.93966292 11.55194347 0.62109375 13.09765625 C-1.03440156 13.48265516 -2.70114955 13.8255876 -4.37890625 14.09765625 C-4.40576563 11.95188988 -4.42523713 9.8060298 -4.44140625 7.66015625 C-4.45300781 6.46519531 -4.46460938 5.27023437 -4.4765625 4.0390625 C-4.33727592 -0.15624931 -4.27071988 0.12343121 0 0 Z " fill="#D0CCB8" transform="translate(12.37890625,-0.09765625)"/>
<path d="M0 0 C0.06058594 1.14339844 0.12117187 2.28679688 0.18359375 3.46484375 C0.26798428 4.95574305 0.35263302 6.44662775 0.4375 7.9375 C0.47681641 8.69224609 0.51613281 9.44699219 0.55664062 10.22460938 C0.44038024 13.91944187 0.44038024 13.91944187 2 17 C3.34747084 17.23075082 4.70377565 17.41153063 6.0625 17.5625 C7.361875 17.706875 8.66125 17.85125 10 18 C6.90097677 21.09902323 4.60852615 20.9898579 0.25 21.0625 C-0.8225 21.041875 -1.895 21.02125 -3 21 C-7.59225513 7.3667426 -7.59225513 7.3667426 -7 1 C-4.53721199 -0.231394 -2.7204945 -0.07159196 0 0 Z " fill="#B0BEC4" transform="translate(7,3)"/>
<path d="M0 0 C2.64 0 5.28 0 8 0 C8 3.96 8 7.92 8 12 C6.68 11.01 5.36 10.02 4 9 C2.68 9.33 1.36 9.66 0 10 C0 6.7 0 3.4 0 0 Z " fill="#E5EAEA" transform="translate(16,0)"/>
<path d="M0 0 C0.66 2.31 1.32 4.62 2 7 C4.64 7.33 7.28 7.66 10 8 C6.90097677 11.09902323 4.60852615 10.9898579 0.25 11.0625 C-0.8225 11.041875 -1.895 11.02125 -3 11 C-3.66 8.03 -4.32 5.06 -5 2 C-2 0 -2 0 0 0 Z " fill="#9CA9B0" transform="translate(7,13)"/>
<path d="M0 0 C3.20815601 0.11062607 4.27578292 1.2501287 6.6875 3.4375 C9 6 9 6 10 8 C6.04 8 2.08 8 -2 8 C-2 2 -2 2 0 0 Z " fill="#4BAA4F" transform="translate(10,12)"/>
<path d="M0 0 C0.66 0 1.32 0 2 0 C2 3.3 2 6.6 2 10 C0 10 0 10 -2.125 8 C-2.74375 7.34 -3.3625 6.68 -4 6 C-2.84826645 3.53199953 -1.95216435 1.95216435 0 0 Z " fill="#37833B" transform="translate(18,8)"/>
<path d="M0 0 C0.33 0 0.66 0 1 0 C1 2.31 1 4.62 1 7 C-0.32 7 -1.64 7 -3 7 C-2.25 2.25 -2.25 2.25 0 0 Z " fill="#429746" transform="translate(11,13)"/>
</svg>
