<?xml version="1.0" encoding="UTF-8"?>
<svg version="1.1" xmlns="http://www.w3.org/2000/svg" width="24" height="24">
<path  d="M0 0 C1.19496094 -0.00386719 1.19496094 -0.00386719 2.4140625 -0.0078125 C3.24679687 -0.00007812 4.07953125 0.00765625 4.9375 0.015625 C5.77023437 0.00789062 6.60296875 0.00015625 7.4609375 -0.0078125 C8.25757813 -0.00523438 9.05421875 -0.00265625 9.875 0 C10.60589844 0.00225586 11.33679688 0.00451172 12.08984375 0.00683594 C13.9375 0.265625 13.9375 0.265625 15.9375 2.265625 C16.19628906 4.11328125 16.19628906 4.11328125 16.203125 6.328125 C16.20699219 7.52308594 16.20699219 7.52308594 16.2109375 8.7421875 C16.20320313 9.57492187 16.19546875 10.40765625 16.1875 11.265625 C16.19523437 12.09835937 16.20296875 12.93109375 16.2109375 13.7890625 C16.20835938 14.58570313 16.20578125 15.38234375 16.203125 16.203125 C16.20086914 16.93402344 16.19861328 17.66492188 16.19628906 18.41796875 C15.9375 20.265625 15.9375 20.265625 13.9375 22.265625 C12.08984375 22.52441406 12.08984375 22.52441406 9.875 22.53125 C8.68003906 22.53511719 8.68003906 22.53511719 7.4609375 22.5390625 C6.62820313 22.53132813 5.79546875 22.52359375 4.9375 22.515625 C4.10476563 22.52335937 3.27203125 22.53109375 2.4140625 22.5390625 C1.61742187 22.53648438 0.82078125 22.53390625 0 22.53125 C-0.73089844 22.52899414 -1.46179688 22.52673828 -2.21484375 22.52441406 C-4.0625 22.265625 -4.0625 22.265625 -6.0625 20.265625 C-6.32128906 18.41796875 -6.32128906 18.41796875 -6.328125 16.203125 C-6.33070313 15.40648437 -6.33328125 14.60984375 -6.3359375 13.7890625 C-6.32820312 12.95632813 -6.32046875 12.12359375 -6.3125 11.265625 C-6.32023438 10.43289063 -6.32796875 9.60015625 -6.3359375 8.7421875 C-6.33335937 7.94554687 -6.33078125 7.14890625 -6.328125 6.328125 C-6.32586914 5.59722656 -6.32361328 4.86632812 -6.32128906 4.11328125 C-5.77263541 0.19610124 -3.39292545 0.01047199 0 0 Z " fill="#DFF4FC" transform="translate(7.0625,0.734375)"/>
<path d="M0 0 C6.44444444 0.44444444 6.44444444 0.44444444 8 2 C8.27314815 7.73611111 8.27314815 7.73611111 8 10 C5.63431778 12.36568222 5.14767774 12.25571704 1.9375 12.265625 C0.74253906 12.26949219 0.74253906 12.26949219 -0.4765625 12.2734375 C-1.30929687 12.26570313 -2.14203125 12.25796875 -3 12.25 C-3.83273437 12.25773437 -4.66546875 12.26546875 -5.5234375 12.2734375 C-6.32007813 12.27085938 -7.11671875 12.26828125 -7.9375 12.265625 C-8.66839844 12.26336914 -9.39929688 12.26111328 -10.15234375 12.25878906 C-12 12 -12 12 -14 10 C-14.3125 7 -14.3125 7 -14 4 C-11 2 -11 2 -9.0625 2.12890625 C-8.381875 2.27199219 -7.70125 2.41507813 -7 2.5625 C-4.90623913 2.94166965 -4.90623913 2.94166965 -3 3 C-1.97980427 2.0206121 -0.97850195 1.02104551 0 0 Z " fill="#4FC29F" transform="translate(15,11)"/>
<path d="M0 0 C2.5 0.75 2.5 0.75 5.5 2.75 C2.86 5.06 0.22 7.37 -2.5 9.75 C-3.49 9.09 -4.48 8.43 -5.5 7.75 C-5.875 4.75 -5.875 4.75 -5.5 1.75 C-2.5 -0.25 -2.5 -0.25 0 0 Z " fill="#65D8B8" transform="translate(6.5,13.25)"/>
<path d="M0 0 C1.98 0.495 1.98 0.495 4 1 C3.67 2.32 3.34 3.64 3 5 C1.68 4.67 0.36 4.34 -1 4 C-0.67 2.68 -0.34 1.36 0 0 Z " fill="#FBE084" transform="translate(7,4)"/>
</svg>
